<svg xmlns="http://www.w3.org/2000/svg" xmlns:xlink="http://www.w3.org/1999/xlink" width="70" height="100"><use xlink:href="#A" fill="#F4511E" x="9956.08" y="1307" transform="translate(-9956 -1307)"/><defs><path id="A" d="M67.398 66.437H42.9a2.45 2.45 0 0 0-2.451 2.448 2.45 2.45 0 0 0 2.451 2.448h2.187c-3.288 2.296-7.24 3.586-11.274 3.586-10.846 0-19.67-8.815-19.67-19.65 0-5.253 2.125-10.293 5.858-13.972 2.473-.093 4.69-1.2 6.242-2.92l8.123 8.114c1.092 1.09 2.526 1.636 3.962 1.636 1.193 0 2.384-.383 3.38-1.136l8.002 7.992c.478.478 1.105.717 1.732.717s1.255-.24 1.733-.717l6.397-6.39c.46-.46.718-1.082.718-1.73a2.45 2.45 0 0 0-.386-1.319c-.095-.148-.206-.286-.332-.412l-8-7.99a5.55 5.55 0 0 0 1.141-3.377 5.56 5.56 0 0 0-1.643-3.961L27.26 6.03c-1.06-1.058-2.468-1.64-3.965-1.64a5.58 5.58 0 0 0-2.66.669L16.29.717C15.83.258 15.205 0 14.556 0s-1.274.258-1.733.717L5.235 8.296c-.957.956-.957 2.506 0 3.462l4.345 4.34c-.437.806-.67 1.712-.67 2.655a5.56 5.56 0 0 0 1.642 3.964l3.164 3.16c-1.292 1.165-2.24 2.704-2.67 4.444C4.016 36.714 0 45.757 0 55.27c0 12.25 6.565 22.997 16.366 28.915-6.918.534-12.384 6.323-12.384 13.368A2.45 2.45 0 0 0 6.433 100H60.29a2.45 2.45 0 0 0 2.451-2.448c0-6.808-5.105-12.444-11.692-13.297 5.17-3.075 9.528-7.508 12.473-12.922h3.876a2.45 2.45 0 0 0 2.451-2.448 2.45 2.45 0 0 0-2.45-2.448zM19.65 36.4a3.97 3.97 0 0 1-3.965-3.96 3.97 3.97 0 0 1 3.965-3.96 3.97 3.97 0 0 1 3.964 3.96 3.97 3.97 0 0 1-3.964 3.96zm31.78 13.38l2.93-2.927-6.226-6.22-2.93 2.927 6.226 6.22zM22.796 9.49c.274-.275.722-.275.997 0l23.802 23.773c.17.17.207.366.207.5s-.036.328-.21.5l-1.15 1.15-.015.013-.023.02-7.585 7.578c-.276.275-.724.276-.998.002l-9.388-9.377.032-.267a8.69 8.69 0 0 0 .052-.934c0-4.884-3.978-8.856-8.866-8.856-.408 0-.8.03-1.204.084l-4.428-4.424c-.17-.17-.207-.366-.207-.5a.69.69 0 0 1 .083-.332l.022-.038.022-.03a.7.7 0 0 1 .08-.095l8.776-8.767zm-12.36.535l2.446 2.443 4.12-4.116L14.556 5.9l-4.12 4.116zM57.48 95.104H9.243c1.056-3.506 4.317-6.068 8.167-6.068h31.903c3.85 0 7.11 2.562 8.167 6.068zM4.902 55.27c0 15.918 12.965 28.867 28.9 28.867 9.64 0 18.676-4.918 23.997-12.804h-5.44c-4.652 5.33-11.5 8.483-18.557 8.483-13.55 0-24.57-11.01-24.57-24.547 0-5.657 1.97-11.115 5.5-15.457a8.92 8.92 0 0 1-2.925-3.246C7.38 41.75 4.902 48.365 4.902 55.27z" fill-rule="evenodd"/></defs></svg>