<svg xmlns="http://www.w3.org/2000/svg" xmlns:xlink="http://www.w3.org/1999/xlink" width="80" height="100"><use xlink:href="#A" fill="#F4511E" x="10292" y="1307" transform="translate(-10292 -1307)"/><defs><path id="A" d="M70.38 67.55h7.28a2.32 2.32 0 1 1 0 4.644h-4.604l1.216 2.107c3.44 5.967 1.954 13.448-3.184 17.698l2.606 4.52c.64 1.11.26 2.53-.85 3.172a2.31 2.31 0 0 1-1.157.311c-.803 0-1.582-.416-2.012-1.16L54.31 72.193H25.672L10.303 98.84c-.43.745-1.21 1.16-2.01 1.16-.394 0-.793-.1-1.158-.31-1.11-.64-1.49-2.06-.85-3.172l2.607-4.52c-5.14-4.25-6.626-11.73-3.185-17.7l1.215-2.105H2.32a2.32 2.32 0 1 1 0-4.644h7.28l17.24-29.89c-.973-1.96-1.522-4.168-1.522-6.5 0-5.625 3.18-10.52 7.832-12.982V2.322A2.32 2.32 0 0 1 35.47 0h9.028a2.32 2.32 0 0 1 2.319 2.322v15.855c4.653 2.464 7.832 7.357 7.832 12.982 0 2.33-.548 4.532-1.517 6.5l17.247 29.9zM42.18 4.644h-4.4v12l.41-.056c.22-.027.438-.05.66-.066.372-.03.747-.043 1.125-.043a14.72 14.72 0 0 1 1.202.049 14.73 14.73 0 0 1 .993.116v-12zm-2.195 16.48C45.512 21.123 50 25.626 50 31.16c0 5.38-4.25 9.782-9.565 10.024h-.053l-.08.003-.07.002-.258.006a5.24 5.24 0 0 1-.183-.004h-.01l-.088-.003c-.067-.005-.136-.006-.203-.005-5.305-.253-9.543-4.652-9.543-10.023 0-5.534 4.497-10.036 10.025-10.036zM8.8 83.668c.436 1.63 1.286 3.077 2.46 4.227l24.6-42.65c-2.286-.672-4.342-1.888-6.018-3.497L9.726 76.62c-1.24 2.148-1.568 4.65-.927 7.047zM28.35 67.55l11.64-20.18 11.64 20.18H28.35zm15.77-22.31L68.72 87.893a9.31 9.31 0 0 0 1.534-11.271l-20.12-34.884c-1.676 1.61-3.73 2.828-6.016 3.502z" fill-rule="evenodd"/></defs></svg>