<svg xmlns="http://www.w3.org/2000/svg" xmlns:xlink="http://www.w3.org/1999/xlink" width="100" height="100"><g transform="translate(-10624 -1307)" fill="#F4511E"><use xlink:href="#A" x="10686.1" y="1315.1"/><use xlink:href="#B" x="10681.3" y="1322.5"/><use xlink:href="#C" x="10678.1" y="1331.6"/><use xlink:href="#D" x="10677.2" y="1343"/><use xlink:href="#E" x="10631.9" y="1369.2"/><use xlink:href="#F" x="10639.3" y="1364.3"/><use xlink:href="#G" x="10648.4" y="1361.2"/><use xlink:href="#H" x="10659.9" y="1360.3"/><use xlink:href="#I" x="10624" y="1307.2"/></g><defs><path id="A" d="M29.4 26.4L3.6.6c-.8-.8-2-.8-3 0s-.8 2 0 3l25.8 25.8a2.1 2.1 0 0 0 2.9 0c.8-.8.8-2 0-3z"/><path id="B" d="M26.8 23.8L3.6.6c-.8-.8-2-.8-3 0s-.8 2 0 3L24 26.8a2.1 2.1 0 1 0 2.9-2.9z"/><path id="C" d="M20.8 18L3.6.6c-.8-.8-2-.8-3 0s-.8 2 0 3L18 20.8a2.1 2.1 0 0 0 2.9 0c.8-.8.8-2 0-3z"/><path id="D" d="M10 7L3.6.6c-.8-.8-2-.8-3 0s-.8 2 0 3L7 10a2.1 2.1 0 0 0 2.9 0c.8-.8.8-2 0-3z"/><path id="E" d="M29.4 26.4L3.6.6A2.1 2.1 0 0 0 .6.6c-.8.8-.8 2 0 3l25.8 25.8a2.1 2.1 0 0 0 2.9 0c.8-.8.8-2 0-3z"/><path id="F" d="M27 24L3.6.6c-.8-.8-2-.8-3 0s-.8 2 0 3L24 27a2.1 2.1 0 0 0 2.9 0c.8-.8.8-2 0-3z"/><path id="G" d="M20.8 18L3.6.6c-.8-.8-2-.8-3 0s-.8 2 0 3L18 20.8a2.1 2.1 0 0 0 2.9 0c.8-.8.8-2 0-3z"/><path id="H" d="M10 7L3.6.6c-.8-.8-2-.8-3 0s-.8 2 0 3L7 10a2.1 2.1 0 0 0 2.9 0c.8-.8.8-2 0-3z"/><path id="I" d="M99.4 35.8c-.8-.8-2-.8-3 0C81.6 50.7 67 49.6 52 48 50.3 32.8 49.2 18.4 64 3.6c.8-.8.8-2 0-3s-2-.8-3 0c-16 16-15 31.7-13.5 47C32.3 46 16.5 45 .6 61c-.8.8-.8 2 0 3a2.1 2.1 0 0 0 1.5.6 2.1 2.1 0 0 0 1.5-.6C18.4 49 33 50.2 48 51.8 49.7 67 50.8 81.4 36 96.3a2.1 2.1 0 1 0 2.9 2.9c16-16 15-31.7 13.5-47L65 53c11.3 0 23-2.7 34.5-14.3.8-.8.8-2 0-3z"/></defs></svg>