<svg xmlns="http://www.w3.org/2000/svg" width="72" height="100"><path d="M71.8 40.5C71.8 18.2 53.7 0 31.4 0 30.2 0 29 1 29 2.2c0 1.3 1 2.3 2.3 2.3 2.6 0 5 .3 7.5.8l-1.2 4.4a31 31 0 0 0-21.9 3.6A31 31 0 0 0 1.2 32.4l-.1.1a33 33 0 0 0 1.6 20.6c0 .2.1.4.2.6 3.6 8 10.3 14 18.6 16.8l-1.2 4.3c-4.8-1.5-9.2-4-13-7.5-1-1-2.3-.8-3 .1-1 1-.8 2.4.1 3.2 5.8 5.3 13 8.7 20.5 10a9 9 0 0 1-.6 2.2c-1.6 3.7-5 6-9 6a2.3 2.3 0 0 0-2.3 2.3V97c0 1.2 1 2.3 2.3 2.3h32.7c1.3 0 2.3-1 2.3-2.3v-5.7a2.3 2.3 0 0 0-2.3-2.3c-4 0-7.7-2.5-9.2-6.3-.3-.7-.5-1.3-.6-2 19.2-3.2 33.8-20 33.8-40zm-34.6-26c.4.1.7.2 1 .3l1.2.3c3 1.6 5 6.2 5.5 12.4l-9.6-1.7a49 49 0 0 1-9.1-3.4c3.5-5 7.5-8 11-8zM54 27c-.2 0-.3.1-.5.1-.4 0-.8.1-1.2.1-.4.1-.8.1-1.2.1-.5.1-1 .1-1.5.1-.2-2.7-.7-5.4-1.5-8 0 .1.1.1.1.1 2.5 2 4.7 4.6 6.4 7.4 0 0-.5.1-.6.1zm2.6 4c0 .1.1.2.1.3.4 1 .7 2.2 1 3.4 0 .3.1.7.2 1a49 49 0 0 1 .4 3.8l-.4 5.6-9.6-2.8c.3-1.3.6-2.7.8-4l.3-2.4c.1-.6.1-1 .1-1.6.1-.8.2-1.5.2-2.3V32h.5a35 35 0 0 0 6.4-.8zm.1 18.5c-1.6 4.5-4.5 8.6-8.2 11.7a46 46 0 0 0-3.4-2.8c-.1 0-.1 0-.2-.1-.2-.1-.4-.3-.7-.4l-1.3-1a74.6 74.6 0 0 0 2-4l2.2-6 9.6 2.6zM44.5 64c-.1.1-.2.1-.2.2l-3 1.4c-.4.2-1 .3-1.4.5l-4.2 1c-.1 0-.3.1-.4.1 1.8-1.6 3.6-3.7 5.3-6 0 0 .4.3.5.3l2.7 2c.1 0 .2.1.3.2.1 0 .2.1.3.2l.2.2zm.6-32l-1 8.4c0 .3-.1.6-.1 1-.1 0-.1.1-.1.1L20.2 35l3.6-8.7s.1 0 .1-.1a55 55 0 0 0 10.3 3.9l11 2zm-27-15l1-.6c1-.5 2-1 3-1.3s2-.7 3-1c.7-.1 1.3-.3 2-.4h.1a30 30 0 0 0-5.2 6.2c-.1-.1-.2-.1-.3-.2-.7-.5-1.4-1-2-1.4-.3-.2-.5-.4-.8-.6s-.6-.5-1-.7v-.1zM5 35.8l9.7 2.6a57 57 0 0 0-1.5 10.9l-3.4.2c-.3 0-.6.1-1 .1l-2.6.4c-1.7-4.5-2-9.5-1.3-14.2zm9.8 26l-3.4-3.3c-1-1.3-2-2.6-3-4 .4-.1.7-.2 1-.2.4-.1 1-.1 1.3-.2H12c.4-.1 1-.1 1.3-.1h.1a30 30 0 0 0 1.5 7.9h-.1zm1-27.7l-9.6-2.6s0-.1.1-.1c.2-.6.4-1.3.7-2l1-2c.6-1 1.3-2 2-3a30 30 0 0 1 3-3.2c.4-.4.8-.7 1.2-1l2 1.6c.6.5 1.3 1 2 1.5.5.3 1 .7 1.6 1l-4 10zm2 14.6a19.5 19.5 0 0 1 .3-3.4c.2-2 .5-3.8 1-5.6L42.6 46c-1 3.2-2.2 6.2-3.8 9l-3-1.3-3-1c-2-.7-4-1.4-6.3-1.8a69.8 69.8 0 0 0-6.3-1.2c-.6 0-1-.1-1.7-.1-.2-.1-.5-.1-.8-.1v-.8zm6.7 18c-3.5-1-6-5.7-6.6-12.6 3 .3 6.3.8 9.5 1.7a60 60 0 0 1 9 3.3c-4 5.6-8.4 8.6-12 7.6zm21 26.8v1.3H17.3v-1.3c5-.8 9-4 11-8.7.4-1 .8-2.3 1-3.5H33.5c.2 1 .5 2.2 1 3.3 2 4.8 6 8.2 11.2 9zM31.4 76.6a30 30 0 0 1-6.7-.7l1-4.3c2 .3 3.8.5 5.6.5a30.9 30.9 0 0 0 18.2-5.9c.2-.1.3-.2.5-.3 5.6-4.2 9.7-10.3 11.6-17.2C66 32.8 57.2 16.4 42 11l1.2-4.5a36 36 0 0 1 24.1 34 36 36 0 0 1-35.9 36.1z" fill="#F4511E"/></svg>