<?xml version="1.0" encoding="UTF-8"?>
<svg width="72px" height="100px" viewBox="0 0 72 100" version="1.1" xmlns="http://www.w3.org/2000/svg" xmlns:xlink="http://www.w3.org/1999/xlink">
    <!-- Generator: Sketch 48.2 (47327) - http://www.bohemiancoding.com/sketch -->
    <title>planet-earth</title>
    <desc>Created with Sketch.</desc>
    <defs></defs>
    <g id="Курсовая-работа" stroke="none" stroke-width="1" fill="none" fill-rule="evenodd" transform="translate(-1048.0, -1855.0)">
        <g id="Group-35-Copy" transform="translate(-94.0, 1825.0)" fill="#F4511E" fill-rule="nonzero">
            <g id="Group-39" transform="translate(1142.0, 30.0)">
                <g id="planet-earth">
                    <path d="M71.8,40.5 C71.8,18.2 53.7,0 31.4,0 C30.2,0 29.1,1.0 29.1,2.2 C29.1,3.5 30.2,4.5 31.4,4.5 C34.0,4.5 36.5,4.8 38.9,5.3 L37.7,9.7 C30.2,8.2 22.5,9.4 15.8,13.3 C8.5,17.5 3.3,24.3 1.2,32.4 C1.2,32.4 1.2,32.4 1.2,32.4 L1.2,32.4 C1.2,32.4 1.2,32.4 1.2,32.4 L1.1,32.5 C1.1,32.5 1.1,32.5 1.1,32.5 C-0.6,39.3 -0.0,46.6 2.7,53.1 C2.7,53.3 2.8,53.5 2.9,53.7 C6.5,61.7 13.2,67.7 21.5,70.5 L20.3,74.8 C15.5,73.3 11.1,70.7 7.3,67.3 C6.4,66.4 5.0,66.5 4.2,67.4 C3.3,68.4 3.4,69.8 4.3,70.6 C10.1,75.9 17.2,79.3 24.8,80.6 C24.7,81.3 24.5,82.1 24.2,82.8 C22.6,86.5 19.1,88.9 15.1,88.9 C13.8,88.9 12.8,89.9 12.8,91.2 L12.8,96.9 C12.8,98.1 13.8,99.2 15.1,99.2 L47.8,99.2 C49.1,99.2 50.1,98.1 50.1,96.9 L50.1,91.2 C50.1,89.9 49.1,88.9 47.8,88.9 C43.7,88.9 40.1,86.4 38.6,82.6 C38.3,81.9 38.1,81.3 38.0,80.6 C57.2,77.4 71.8,60.6 71.8,40.5 Z M37.2,14.4 C37.6,14.5 37.9,14.6 38.3,14.7 C38.7,14.8 39.1,14.9 39.5,15.0 C42.4,16.6 44.4,21.2 45.0,27.4 C41.8,27.1 38.6,26.6 35.4,25.7 C32.1,24.8 29.1,23.7 26.3,22.3 C29.8,17.3 33.8,14.3 37.2,14.4 Z M53.9,27.1 C53.7,27.1 53.6,27.2 53.4,27.2 C53.0,27.2 52.6,27.3 52.2,27.3 C51.8,27.4 51.4,27.4 51.0,27.4 C50.5,27.5 50.0,27.5 49.5,27.5 C49.3,24.8 48.8,22.1 48.0,19.5 C48.0,19.6 48.1,19.6 48.1,19.6 C50.6,21.6 52.8,24.2 54.5,27.0 C54.5,27.0 54.0,27.1 53.9,27.1 Z M56.5,31.2 C56.5,31.3 56.6,31.4 56.6,31.5 C57.0,32.6 57.3,33.7 57.6,34.9 C57.6,35.2 57.7,35.6 57.8,35.9 C58.0,37.2 58.1,38.4 58.2,39.7 C58.2,41.6 58.1,43.4 57.8,45.3 L48.2,42.7 C48.2,42.6 48.2,42.6 48.2,42.5 C48.5,41.2 48.8,39.8 49.0,38.5 C49.1,37.7 49.2,36.9 49.3,36.1 C49.4,35.5 49.4,35.0 49.4,34.5 C49.5,33.7 49.6,33.0 49.6,32.2 C49.6,32.1 49.6,32.1 49.6,32.0 C49.6,32.0 50.0,32.0 50.1,32.0 C50.1,32.0 50.1,32.0 50.1,32.0 C52.2,31.9 54.4,31.7 56.5,31.2 Z M56.6,49.7 C55.0,54.2 52.1,58.3 48.4,61.4 C47.3,60.4 46.2,59.5 45.0,58.6 C44.9,58.6 44.9,58.6 44.8,58.5 C44.6,58.4 44.4,58.2 44.1,58.1 C43.7,57.8 43.3,57.5 42.9,57.2 C42.8,57.2 42.8,57.2 42.8,57.2 C43.5,55.9 44.2,54.5 44.8,53.2 C45.2,52.3 45.5,51.4 45.8,50.5 C46.2,49.4 46.6,48.4 47.0,47.3 C47.0,47.2 47.0,47.1 47.0,47.1 L56.6,49.7 Z M44.5,64.0 C44.5,64.0 44.5,64.0 44.5,64.0 C44.4,64.1 44.3,64.1 44.3,64.2 C43.3,64.7 42.3,65.2 41.2,65.6 C40.8,65.8 40.3,65.9 39.8,66.1 C39.1,66.3 38.4,66.5 37.6,66.7 C36.9,66.9 36.3,67.0 35.6,67.1 C35.5,67.1 35.3,67.2 35.2,67.2 C37.0,65.6 38.8,63.5 40.5,61.1 C40.5,61.1 40.9,61.4 41.0,61.4 C41.9,62.0 42.9,62.7 43.7,63.4 C43.8,63.4 43.9,63.5 44.0,63.6 C44.1,63.6 44.2,63.7 44.3,63.8 C44.3,63.8 44.4,63.9 44.5,64.0 C44.5,64.0 44.5,64.0 44.5,64.0 Z M45.1,32.1 C45.0,33.2 44.9,34.4 44.8,35.6 C44.6,37.2 44.3,38.8 44.0,40.5 C44.0,40.8 43.9,41.1 43.9,41.4 C43.8,41.4 43.8,41.5 43.8,41.5 L20.2,35.2 C20.2,35.1 20.2,35.1 20.2,35.0 C20.3,34.7 20.4,34.4 20.5,34.1 C21.4,31.5 22.5,28.8 23.8,26.3 C23.8,26.3 23.9,26.3 23.9,26.2 C27.1,27.8 30.5,29.1 34.2,30.1 C37.9,31.0 41.5,31.7 45.1,31.9 C45.1,32.0 45.1,32.0 45.1,32.1 Z M18.2,17.2 C18.6,17.0 19.0,16.8 19.3,16.6 C20.3,16.1 21.4,15.7 22.4,15.3 C23.4,14.9 24.4,14.6 25.4,14.4 C26.1,14.3 26.7,14.1 27.4,14.0 C27.4,14.0 27.5,14.0 27.5,14.0 C25.7,15.6 23.9,17.7 22.3,20.2 C22.2,20.1 22.1,20.1 22.0,20.0 C21.3,19.5 20.6,19.1 19.9,18.6 C19.6,18.4 19.4,18.2 19.1,18.0 C18.8,17.8 18.5,17.5 18.2,17.3 C18.2,17.3 18.2,17.2 18.2,17.2 C18.2,17.2 18.2,17.2 18.2,17.2 Z M5.0,35.8 C8.2,36.7 11.5,37.5 14.7,38.4 C13.8,42.0 13.4,45.6 13.2,49.3 C13.0,49.3 12.7,49.3 12.5,49.3 C11.6,49.3 10.7,49.4 9.8,49.5 C9.5,49.5 9.2,49.6 8.9,49.6 C8.1,49.7 7.2,49.9 6.3,50.0 C4.6,45.5 4.2,40.5 5.0,35.8 Z M14.8,61.7 C13.6,60.7 12.4,59.6 11.4,58.4 C10.3,57.1 9.3,55.8 8.4,54.3 C8.4,54.3 8.4,54.3 8.4,54.3 C8.4,54.3 8.4,54.3 8.4,54.3 C8.8,54.2 9.1,54.1 9.5,54.1 C9.9,54.0 10.4,54.0 10.8,53.9 C11.2,53.9 11.6,53.9 12.0,53.9 C12.4,53.8 12.9,53.8 13.3,53.8 C13.3,53.8 13.3,53.8 13.4,53.8 C13.6,56.8 14.1,59.4 14.9,61.7 C14.9,61.7 14.9,61.7 14.8,61.7 Z M15.8,34.0 L6.2,31.4 C6.2,31.4 6.2,31.4 6.2,31.4 C6.2,31.4 6.2,31.3 6.3,31.3 C6.5,30.7 6.7,30.0 7.0,29.4 C7.4,28.7 7.7,28.0 8.1,27.3 C8.7,26.2 9.4,25.2 10.1,24.2 C11.0,23.1 12.0,22.0 13.1,21.0 C13.5,20.6 13.9,20.3 14.3,19.9 C15.0,20.5 15.6,21.0 16.3,21.5 C16.9,22.0 17.6,22.5 18.3,23.0 C18.8,23.3 19.4,23.7 19.9,24.0 C19.9,24.0 18.7,26.6 18.5,26.9 C18.1,27.9 17.6,28.9 17.2,29.9 C16.7,31.3 16.2,32.6 15.8,34.0 Z M17.8,48.6 C17.8,47.5 17.9,46.3 18.1,45.2 C18.3,43.3 18.6,41.4 19.0,39.6 C26.9,41.7 34.8,43.8 42.6,45.9 C41.7,49.1 40.4,52.1 38.8,55.0 C38.8,55.0 36.2,53.8 35.9,53.7 C34.9,53.3 33.9,52.9 32.9,52.6 C30.8,51.9 28.8,51.2 26.6,50.8 C24.5,50.3 22.4,49.9 20.3,49.6 C19.7,49.6 19.2,49.5 18.6,49.5 C18.4,49.4 18.1,49.4 17.8,49.4 L17.8,48.6 Z M24.5,66.5 C21.0,65.6 18.5,60.8 17.9,53.9 C21.0,54.2 24.2,54.7 27.4,55.6 C30.6,56.5 33.6,57.6 36.4,58.9 C32.5,64.5 28.0,67.5 24.5,66.5 C24.5,66.5 24.5,66.5 24.5,66.5 Z M45.6,93.3 L45.6,94.6 L17.3,94.6 L17.3,93.3 C22.2,92.5 26.4,89.3 28.4,84.6 C28.8,83.5 29.2,82.3 29.3,81.1 C30.0,81.1 30.7,81.1 31.4,81.1 C32.1,81.1 32.8,81.1 33.5,81.0 C33.7,82.1 34.0,83.2 34.4,84.3 C36.3,89.1 40.5,92.5 45.6,93.3 Z M31.4,76.6 C29.1,76.6 26.9,76.4 24.7,75.9 L25.8,71.6 C27.7,71.9 29.6,72.1 31.4,72.1 C37.9,72.1 44.2,70.1 49.6,66.2 C49.8,66.1 49.9,66.0 50.1,65.9 C55.7,61.7 59.8,55.6 61.7,48.7 C61.7,48.7 61.7,48.7 61.7,48.7 L61.7,48.7 C65.9,32.8 57.2,16.4 42.0,11.0 L43.2,6.5 C57.2,11.4 67.3,24.8 67.3,40.5 C67.3,60.4 51.2,76.6 31.4,76.6 Z" id="Shape"></path>
                </g>
            </g>
        </g>
    </g>
</svg>