<svg xmlns="http://www.w3.org/2000/svg" xmlns:xlink="http://www.w3.org/1999/xlink" width="95" height="100"><g transform="translate(-11308 -1307)" fill="#F4511E"><use xlink:href="#A" x="11308.2" y="1307"/><use xlink:href="#B" x="11347.9" y="1346.9"/></g><defs><path id="A" d="M88 49.7c6.6-9.4 8.3-18.4 4.5-25-1-1.6-2.2-3-4-4.3.1-.2.1-.4.1-.6v-.5c0-4-3-7-7-7-2.8 0-5.2 1.6-6.3 4-2-.2-4.4-.1-6.7.1C64 6 57 0 49.5 0S35 6 30.2 16.3c-11.5-1-20 2-23.8 8.5a15 15 0 0 0-1.9 5.5A7.1 7.1 0 0 0 0 36.9c0 4 3 7 7 7h.2H7.4c1 2 2 4 3.5 5.8C4.3 59 2.6 68 6.4 74.6c3.2 5.7 10.3 8.7 19.7 8.7h2c.7 0 1.4-.1 2-.1C35 93.6 42 99.5 49.5 99.5c2 0 3.8-.4 5.7-1.2 1.2 1 2.7 1.7 4.4 1.7a7.1 7.1 0 0 0 7.1-7.1c0-1.4-.4-2.8-1.2-4a40 40 0 0 0 3.3-5.8c1.4.1 2.8.1 4 .1 9.4 0 16.5-3 19.7-8.7 3.8-6.5 2-15.5-4.5-25zm-6.3-33.2c1.6 0 3 1.3 3 3s-1.3 3-3 3-3-1.3-3-3 1.3-3 3-3zm0 10c-3.6 0-6.6-2.6-7-6-1.4-.1-2.8 0-4.3 0a81 81 0 0 1 3.9 15.1 76.1 76.1 0 0 1 11.1 10.8c5-7.6 6.3-14.5 3.5-19.3a6.6 6.6 0 0 0-1.2-1.7l-1-1c-1.3 1.3-3 2-5 2zm-6.7 15c3 2.6 5.6 5.4 8 8.2L75 58l.4-8.3-.4-8.2zM62.5 27.3c2.4 1.4 4.7 2.8 7 4.4-1-4-2-7.6-3.3-11-3.5.5-7.3 1.4-11 2.6 2.5 1.2 5 2.5 7.4 4zM49.5 4c5.5 0 11 4.6 15 12.7-4.8.8-10 2.2-15 4.2-5-2-10-3.4-15-4.2 4-8 9.5-12.7 15-12.7zM44 23.4c-3.8-1.2-7.6-2-11-2.6l-3.3 11 7-4.4 7.4-4zM7 39.8c-1.6 0-3-1.3-3-3s1.3-3 3-3 3 1.3 3 3-1.3 3-3 3zm3-13c-.6 1-1 2-1.2 3.2 3 .8 5.3 3.5 5.3 6.8a7 7 0 0 1-2.8 5.6c.7 1.2 1.4 2.5 2.2 3.7a76.1 76.1 0 0 1 11.1-10.8 81 81 0 0 1 3.9-15.1c-9-.5-15.8 1.8-18.5 6.6zm14 31c-3-2.7-5.6-5.5-7.8-8.3C18.3 47 21 44 24 41.4a115.1 115.1 0 0 0-.3 8.3 113 113 0 0 0 .3 8.3zm-10.4-4.8c-5 7.6-6.3 14.6-3.5 19.3 2.7 4.8 9.4 7 18.5 6.6a80 80 0 0 1-3.9-15c-4.3-3.5-8-7-11-11zm16 14.5l7 4.5L44 76a85 85 0 0 1-11.1 2.7l-3.3-11zM56.7 93c0 1.6 1.3 3 3 3s3-1.3 3-3-1.3-3-3-3-3 1.3-3 3zm5.6-6.5c-.8-.4-1.7-.6-2.7-.6-4 0-7 3.2-7 7v.8c.1.4.1.7.2 1-1 .3-2.2.5-3.3.5-5.5 0-11-4.6-15-12.7 5-.8 10-2.2 15-4.2 5 2 10.2 3.4 15 4.2l-2.2 3.8zM55 76c3.8 1.2 7.6 2.2 11 2.7 1.3-3.4 2.4-7 3.3-11a104 104 0 0 1-7 4.5c-2.4 1.4-5 2.6-7.4 3.8zm5.3-7.4c-3.6 2-7.2 3.8-11 5.3-3.7-1.5-7.3-3.3-11-5.3-3.6-2-7-4.4-10-6.8a96 96 0 0 1-.8-12.1 97 97 0 0 1 .8-12.1l10-6.7 11-5.4a85 85 0 0 1 10.9 5.4c3.6 2 7 4.3 10 6.7a97 97 0 0 1 .8 12.1l-.8 12-10 6.8zm10 10.5c9 .5 15.8-1.8 18.5-6.6 2.8-4.7 1.5-11.7-3.5-19.3-3 3.8-6.8 7.4-11 11a80 80 0 0 1-3.9 15z" fill-rule="evenodd"/><path id="B" d="M0 9.8A9.8 9.8 0 0 1 9.8 0c5.5 0 10 4.4 10 9.8s-4.4 10-10 10c-5.4 0-9.8-4.5-9.8-10zm4 0c0 3 2.6 5.7 5.7 5.7 3.2 0 5.7-2.6 5.7-5.7S13 4 9.8 4C6.7 4 4 6.7 4 9.8z" fill-rule="evenodd"/></defs></svg>