<svg width="95" height="100" viewBox="0 0 95 100" version="1.1" xmlns="http://www.w3.org/2000/svg" xmlns:xlink="http://www.w3.org/1999/xlink">
<title>physics</title>
<desc>Created using Figma</desc>
<g id="Canvas" transform="translate(-11308 -1307)">
<g id="physics">
<g id="Shape">
<use xlink:href="#path0_fill" transform="translate(11308.2 1307)" fill="#F4511E"/>
</g>
<g id="Shape">
<use xlink:href="#path1_fill" transform="translate(11347.9 1346.9)" fill="#F4511E"/>
</g>
</g>
</g>
<defs>
<path id="path0_fill" fill-rule="evenodd" d="M 88.1 49.7C 94.7 40.3 96.4 31.3 92.6 24.8C 91.7 23.2 90.4 21.7 88.7 20.5C 88.8 20.3 88.8 20.1 88.8 19.9C 88.8 19.8 88.8 19.7 88.8 19.6C 88.8 19.5 88.8 19.4 88.8 19.4C 88.8 15.5 85.7 12.3 81.8 12.3C 79.0 12.3 76.6 13.9 75.5 16.2C 73.4 16.0 71.1 16.1 68.8 16.3C 64.0 5.9 57.0 0 49.5 0C 42.0 0 35.0 5.9 30.2 16.3C 18.7 15.3 10.1 18.4 6.4 24.8C 5.4 26.5 4.8 28.3 4.5 30.3C 1.9 31.3 0 33.9 0 36.9C 0 40.8 3.1 44.0 7.0 44.0L 7.2 44.0L 7.4 43.9C 8.3 45.8 9.5 47.8 10.9 49.7C 4.3 59.1 2.6 68.1 6.4 74.6C 9.6 80.3 16.7 83.3 26.1 83.3C 26.7 83.3 27.4 83.3 28.1 83.3C 28.8 83.3 29.5 83.2 30.2 83.2C 35.0 93.6 42.0 99.5 49.5 99.5C 51.4 99.5 53.3 99.1 55.2 98.3C 56.4 99.3 57.9 100 59.6 100C 63.5 100 66.7 96.8 66.7 92.9C 66.7 91.5 66.3 90.1 65.5 89.0C 66.7 87.3 67.8 85.3 68.8 83.2C 70.2 83.3 71.6 83.3 72.9 83.3C 82.3 83.3 89.4 80.3 92.6 74.6C 96.4 68.1 94.7 59.1 88.1 49.7ZM 81.8 16.5C 83.4 16.5 84.7 17.8 84.7 19.4C 84.7 21.0 83.4 22.3 81.8 22.3C 80.2 22.3 78.9 21.0 78.9 19.4C 78.9 17.8 80.2 16.5 81.8 16.5ZM 81.8 26.4C 78.2 26.4 75.2 23.8 74.8 20.3C 73.4 20.2 72.0 20.3 70.5 20.3C 72.2 24.9 73.5 29.9 74.4 35.4C 78.7 38.8 82.4 42.5 85.5 46.2C 90.5 38.6 91.8 31.7 89.0 26.9C 88.7 26.3 88.3 25.7 87.8 25.2C 87.5 24.9 87.2 24.6 86.8 24.3C 85.5 25.6 83.7 26.4 81.8 26.4ZM 75.1 41.5C 78.1 44.1 80.7 46.9 83.0 49.7C 80.7 52.5 78.1 55.3 75.1 58.0C 75.3 55.3 75.5 52.5 75.5 49.7C 75.5 46.9 75.3 44.2 75.1 41.5ZM 62.5 27.3C 64.9 28.7 67.2 30.1 69.5 31.7C 68.6 27.8 67.5 24.1 66.2 20.8C 62.7 21.3 58.9 22.2 55.1 23.4C 57.6 24.6 60.1 25.9 62.5 27.3ZM 49.5 4.1C 55.0 4.1 60.4 8.7 64.5 16.8C 59.7 17.6 54.6 19.0 49.5 21.0C 44.4 19.0 39.4 17.6 34.5 16.8C 38.6 8.7 44.0 4.1 49.5 4.1ZM 43.9 23.4C 40.1 22.2 36.3 21.3 32.8 20.8C 31.5 24.1 30.4 27.8 29.5 31.7C 31.8 30.1 34.1 28.7 36.5 27.3C 38.9 25.9 41.4 24.6 43.9 23.4ZM 7.0 39.8C 5.4 39.8 4.1 38.5 4.1 36.9C 4.1 35.3 5.4 34.0 7.0 34.0C 8.6 34.0 9.9 35.3 9.9 36.9C 9.9 38.5 8.6 39.8 7.0 39.8ZM 10.0 26.9C 9.4 27.9 9.0 28.9 8.8 30.1C 11.8 30.9 14.1 33.6 14.1 36.9C 14.1 39.2 13.0 41.2 11.3 42.5C 12.0 43.7 12.7 45.0 13.5 46.2C 16.6 42.5 20.3 38.8 24.6 35.4C 25.5 29.9 26.8 24.9 28.5 20.3C 19.4 19.8 12.7 22.1 10.0 26.9ZM 23.9 58.0C 20.9 55.3 18.3 52.5 16.1 49.7C 18.3 46.9 20.9 44.1 23.9 41.4C 23.7 44.2 23.6 46.9 23.6 49.7C 23.6 52.5 23.7 55.3 23.9 58.0ZM 13.5 53.2C 8.5 60.8 7.2 67.8 10.0 72.5C 12.7 77.3 19.4 79.6 28.5 79.1C 26.8 74.6 25.5 69.5 24.6 64.1C 20.3 60.6 16.6 57.0 13.5 53.2ZM 29.5 67.7C 31.8 69.3 34.1 70.8 36.5 72.2C 38.9 73.6 41.4 74.8 43.9 76.0C 40.1 77.2 36.3 78.1 32.8 78.7C 31.5 75.3 30.4 71.6 29.5 67.7ZM 56.7 92.9C 56.7 94.5 58.0 95.8 59.6 95.8C 61.2 95.8 62.5 94.5 62.5 92.9C 62.5 91.3 61.2 90.0 59.6 90.0C 58.0 90.0 56.7 91.3 56.7 92.9ZM 62.3 86.4C 61.5 86.0 60.6 85.8 59.6 85.8C 55.7 85.8 52.6 89.0 52.6 92.9C 52.6 93.0 52.6 93.1 52.6 93.3C 52.6 93.4 52.6 93.6 52.6 93.7C 52.7 94.1 52.7 94.4 52.8 94.8C 51.7 95.1 50.6 95.3 49.5 95.3C 44.0 95.3 38.6 90.7 34.5 82.6C 39.4 81.8 44.4 80.4 49.5 78.4C 54.6 80.4 59.7 81.8 64.5 82.6C 63.8 83.9 63.1 85.2 62.3 86.4ZM 55.1 76.0C 58.9 77.2 62.7 78.2 66.2 78.7C 67.5 75.3 68.6 71.6 69.5 67.7C 67.2 69.3 64.9 70.8 62.5 72.2C 60.1 73.6 57.6 74.8 55.1 76.0ZM 60.4 68.6C 56.8 70.6 53.2 72.4 49.5 73.9C 45.8 72.4 42.2 70.6 38.6 68.6C 35.0 66.5 31.7 64.2 28.5 61.8C 28.0 57.9 27.7 53.8 27.7 49.7C 27.7 45.6 28.0 41.6 28.5 37.6C 31.7 35.2 35.0 32.9 38.6 30.9C 42.2 28.8 45.8 27.0 49.5 25.5C 53.2 27.0 56.8 28.8 60.4 30.9C 64.0 32.9 67.3 35.2 70.5 37.6C 71.0 41.6 71.3 45.6 71.3 49.7C 71.3 53.8 71.0 57.9 70.5 61.8C 67.3 64.3 63.9 66.5 60.4 68.6ZM 70.5 79.1C 79.6 79.6 86.3 77.3 89.0 72.5C 91.8 67.8 90.5 60.8 85.5 53.2C 82.4 57.0 78.7 60.6 74.4 64.1C 73.5 69.5 72.2 74.6 70.5 79.1Z"/>
<path id="path1_fill" fill-rule="evenodd" d="M 0 9.8C 0 4.4 4.4 0 9.8 0C 15.3 0 19.7 4.4 19.7 9.8C 19.7 15.2 15.3 19.7 9.8 19.7C 4.4 19.7 0 15.2 0 9.8ZM 4.1 9.8C 4.1 12.9 6.7 15.5 9.8 15.5C 13.0 15.5 15.5 12.9 15.5 9.8C 15.5 6.7 13.0 4.1 9.8 4.1C 6.7 4.1 4.1 6.7 4.1 9.8Z"/>
</defs>
</svg>
