<svg xmlns="http://www.w3.org/2000/svg" width="104" height="100"><path d="M18.7 30.3H12c-2 0-4 1.7-4 4v34.3c0 2 1.7 4 4 4h6.7c2 0 4-1.7 4-4V34.2c0-2-1.7-4-4-4zm-1.3 37h-4V35.5h4v31.7zm27-37h-6.7c-2 0-4 1.7-4 4v34.3c0 2 1.7 4 4 4h6.7c2 0 4-1.7 4-4V34.2c0-2-1.7-4-4-4zm-1.3 37h-4V35.5h4v31.7zm46.4-3l-9-33c-.6-2-2.7-3.3-4.7-2.7L69.4 30a3.9 3.9 0 0 0-2.7 4.8l9 33.2c.3 1 1 1.8 1.8 2.4.6.3 1.3.5 2 .5a3.8 3.8 0 0 0 1-.1l6.5-1.7a3.9 3.9 0 0 0 2.7-4.8zM80 65.4L72 34.8l4-1L84 64.4l-4 1zm23.6 20.8L82 5c-.4-1.7-1.5-3-3-4a6.4 6.4 0 0 0-4.9-.6L57 5a6.5 6.5 0 0 0-1.6.7c-1.2-1.7-3-3-5.4-3H32a6.4 6.4 0 0 0-3.9 1.3 6.4 6.4 0 0 0-3.9-1.3H6.5C3 2.8 0 5.7 0 9.2v84C0 97 3 100 6.5 100h17.8a6.4 6.4 0 0 0 3.9-1.3 6.4 6.4 0 0 0 3.9 1.3h17.8c3.6 0 6.5-3 6.5-6.5V28l17.7 66a6.4 6.4 0 0 0 3 3.9 6.4 6.4 0 0 0 3.2.9c.6 0 1-.1 1.7-.2l17.2-4.6a6.4 6.4 0 0 0 3.9-3c1-1.5 1-3.2.6-5zm-78.2 7.2c0 .7-.6 1.3-1.3 1.3H6.5c-.7 0-1.3-.6-1.3-1.3V88h20.4v5.4zm0-10.6H5.2V20h20.4v63zm0-68H5.2V9.2c0-.7.6-1.3 1.3-1.3h17.8c.7 0 1.3.6 1.3 1.3v5.4zm25.6 78.7c0 .7-.6 1.3-1.3 1.3H32c-.7 0-1.3-.6-1.3-1.3V88h20.4v5.4zm0-10.6H30.8V20h20.4v63zm0-68H30.8V9.2c0-.7.6-1.3 1.3-1.3H50c.7 0 1.3.6 1.3 1.3v5.4zm6-3a1.3 1.3 0 0 1 .1-1c.1-.2.3-.5.8-.6l17.2-4.6a1.3 1.3 0 0 1 .3 0c.6 0 1 .4 1.3 1l1.4 5.3-19.7 5.3-1.4-5.3zm19 71L60 21.8l19.7-5.3L96 77.3l-19.7 5.3zm22.3 6a1.3 1.3 0 0 1-.8.6l-17.2 4.6a1.3 1.3 0 0 1-1.6-.9l-1.4-5.3 19.7-5.3 1.4 5.3a1.3 1.3 0 0 1-.1 1z" fill="#F4511E"/></svg>