<svg xmlns="http://www.w3.org/2000/svg" width="126" height="126"><style><![CDATA[.C{fill:#fff}.D{fill:#E94E1B}.E{fill:#13110C}.F{fill:#36A9E1}]]></style><circle cx="51.4" cy="51.4" r="49.9" fill="#fff" stroke="#e94e1b" stroke-width="3"/><path d="M17.4 3.3S12.6 20.9 14.3 30s6.7 10.8 7.8 11.1c0 0-8.6 6.8-6.2 23.1l1.6-1.6s.1 2.3-.4 3.6-.9 3.8-.3 4.8c0 0 .6-3.3 1.2-3.8 0 0 1.1 1.6 1.4 3.3.2 1.7.6 5 1.7 5.3 0 0-.3-4.4 1.1-5.7 0 0 7.3 12.1 22.5 15.8 0 0-2.4-3.4-2.4-5.3 0 0 10.9 7.1 25.2 4.4 7.6-1.4 11.9-7 14-13.1 0 0 15.3 2.3 27.1-2.5s20.8-15.7 16.4-23.6c-.7-1.3-3.3-.5-5.3.4s-4.1 2.7-6.6 2.8c-2.4 0-17.4-.6-19.4-1-1.9-.4-7.3-.7-8.5-4.9s-.5-6.5-3.6-9.1-12.8-10.9-22.7-13.1c0 0-8.9-12.9-13.8-16.5 0 0-3.4 2.6-4.7 14.1l-1.3 1c.1.1-13.9-8.5-21.7-16.2z" fill="#12100b"/><path class="C" d="M58.2 51.4s-3.3-3.3-8.4-2c-5 1.3-7.3 7.6-5.5 10.9 0 0-.2-3.6 4.4-6.2 0 0 12.4 13.5 29.4 16.9 0 0-2.9 8.3-10.6 9.8-4.7.9-9.1-.7-14-2.3s-14.1-5.2-16.8-14.8S45.2 49 45.2 49s-3 0-4.6.5c-.4-.3 11.4-7.9 27.7-7.2 0 0-1-1.1-.7-2 0 0 2.8.7 3 1.5 0 0-.1-1.5-.4-2.1 0 0 6.6 7.3 18.6 9.9s24.2 2.5 25.3 2.4c0 0 1.1.6 1.3 1.7 0 0-8.2 3.7-21.3 2-14.6-1.9-29.2-9-29.2-9s19 10.1 29.7 11.4 17.5-1.1 22.2-2.7c0 0 1.8 1.2 2.1 2.8s-6 6.9-11.3 8.8c-5.3 1.8-19 5.2-33.5.5S51.9 52.7 51.9 52.7s.9-2.4 6.3-1.3z"/><path class="D" d="M80.2 38.7S79 34.2 68.6 28.6 52.1 20.7 47 21.1c-5.2.4-10.5 4.3-11.1 4.9 0 0 2.2-3.4-2.5-6.5s-8.7-6.3-8.7-6.3L32 30.6l-.9-.9s-.1 5.8-5.8 12.2-6.7 9.8-6.9 14.2c0 0 2.5-3.5 3.3-4 0 0-1.8 7.2-1.3 11l1.4-1.3s0 7.3 5.2 10.6c0 0-.4-2.2.5-3.1 0 0 3.7 10.2 12.4 11.7 0 0-1.1-2.7-2.7-4.2 0 0 11.7 5.1 20.3 6C71.3 84.2 75.4 76 75.4 76s-3.9 4.1-12.8 3.3c-5.9-.6-13-2.6-19.3-7.4-5.7-4.3-9.3-10.3-4.7-16.7 2-2.7 7.2-6.4 7.2-6.4s-2.8-.1-5 .6c0 0 7.5-6.1 28.2-6.9 0 0-1.6-1.5-1.1-2.1 0 0 2.5.7 2.9 1.4 0 0 .2-1.3-.5-2.2 0 0 8.6 3.6 12 4.5L74.9 35c0 .1 2.6 1.1 5.3 3.7z"/><path class="E" d="M62.1 30.4s-2-.2-4.3-1.7-4.6-3.2-6.5-3.7-4.2-1-7.1 1.5c0 0 3.9.6 6.2.5 0 0-8.3 5.4-13.6 6.1l6.6 1.4s-1.1 3.6-.5 4.9 2.1 2.9 6.8 2 9.1-4.4 15.6-3.7c0 0-4.5-2.5-9-3.2s-9.5-1.9-9.5-1.9l-.9-1s2.3-2.3 3.3-2.9 3.1-1.9 5.8.3 4.8 4.4 7.3 4.9c0 0-2.4-2-3.3-3.2.1.2.6-.5 3.1-.3z"/><path class="C" d="M63.3 37.2l-14.9-2.4c-1.4-.1-3.2-.5-3.9.6-.5.8-.7 2.9-.2 4 0 0 1.8 1.2 9.2-.6 7.5-1.7 9.8-1.6 9.8-1.6z"/><path class="F" d="M56.2 36l-3.1-.5s-1.5 3.8-3.9 4.1l3.1-.5 3.5-.8s.2 0 .4-.9V36z"/><path class="F" d="M48.1 34.7c.7-.1 3.1.6 4.3.5l.8 3.8-1.9.4-2.9.3c-.2-.1-.6-1.4-.7-2.4s.4-2.6.4-2.6z"/><ellipse class="E" cx="52.1" cy="37" rx="2.6" ry="2.5"/><path class="C" d="M31.1 30.1S22.4 18.4 19.7 12c0 0-2.9 14-.4 22.2s10.1.3 10.6-.5c.6-.8 1.4-2.9 1.2-3.6z"/><path class="D" d="M53.8 18.9S47.5 9.2 45 7.6c0 0-2.2 4.3-1.8 10.1 0 0 7.5-.1 10.6 1.2z"/><path class="C" d="M50.2 36.6c-.2 1.1.9 1.2.9 1.2s-.5-.7-.1-1.1c.4-.3.6-.4.6-.4 0-.4-.3-.6-.7-.6s-.7.5-.7.9z"/></svg>