<?xml version="1.0"?>
<svg xmlns="http://www.w3.org/2000/svg" height="512px" viewBox="-42 0 512 512" width="512px"><path d="m170.527344 174.027344c-38.265625 0-69.394532-31.132813-69.394532-69.398438s31.128907-69.398437 69.394532-69.398437c38.269531 0 69.398437 31.132812 69.398437 69.398437s-31.128906 69.398438-69.398437 69.398438zm0-118.796875c-27.238282 0-49.394532 22.160156-49.394532 49.398437 0 27.234375 22.15625 49.394532 49.394532 49.394532 27.238281 0 49.398437-22.160157 49.398437-49.394532 0-27.238281-22.160156-49.398437-49.398437-49.398437zm0 0" fill="#f4511e"/><path d="m348.894531 242.730469c-.648437 0-1.308593-.070313-1.957031-.199219-.632812-.132812-1.261719-.320312-1.871094-.570312-.601562-.25-1.179687-.5625-1.71875-.921876-.550781-.359374-1.0625-.777343-1.523437-1.238281-.457031-.460937-.878907-.972656-1.25-1.519531-.355469-.542969-.667969-1.121094-.917969-1.730469-.25-.601562-.4375-1.230469-.570312-1.871093-.128907-.640626-.191407-1.300782-.191407-1.949219 0-.652344.0625-1.308594.191407-1.960938.132812-.628906.320312-1.257812.570312-1.871093.25-.597657.5625-1.179688.917969-1.71875.371093-.550782.792969-1.058594 1.25-1.519532.460937-.460937.972656-.878906 1.523437-1.25.539063-.359375 1.117188-.671875 1.71875-.921875.609375-.25 1.230469-.4375 1.871094-.566406 1.289062-.261719 2.617188-.261719 3.910156 0 .636719.128906 1.269532.316406 1.867188.566406.609375.25 1.191406.5625 1.730468.921875.550782.371094 1.0625.789063 1.519532 1.25.460937.460938.882812.96875 1.242187 1.519532.359375.539062.667969 1.121093.917969 1.71875.25.613281.441406 1.242187.570312 1.871093.128907.652344.199219 1.308594.199219 1.960938 0 .648437-.070312 1.308593-.199219 1.949219-.128906.640624-.320312 1.269531-.570312 1.871093-.25.609375-.558594 1.1875-.917969 1.730469-.359375.546875-.78125 1.058594-1.242187 1.519531-.457032.460938-.96875.878907-1.519532 1.238281-.539062.359376-1.121093.671876-1.730468.921876-.601563.25-1.230469.4375-1.867188.570312-.640625.128906-1.300781.199219-1.953125.199219zm0 0" fill="#f4511e"/><path d="m425.828125 179.882812-68.117187-127.296874c-1.738282-3.25-5.128907-5.28125-8.816407-5.28125s-7.078125 2.03125-8.816406 5.28125l-68.121094 127.296874c-1.65625 3.101563-1.566406 6.84375.238281 9.855469 1.808594 3.015625 5.066407 4.863281 8.578126 4.863281h20.355468v187.492188h-12.144531v-45.15625c0-5.523438-4.476563-10-10-10h-20.929687c1.382812-1.167969 2.726562-2.394531 4.023437-3.695312 31.589844-31.589844 22.648437-89.382813 22.25-91.828126-.6875-4.25-4.019531-7.582031-8.269531-8.269531-2.445313-.398437-60.238282-9.339843-91.828125 22.25-1.300781 1.300781-2.535157 2.644531-3.699219 4.027344v-40.640625c53.019531-5.050781 94.625-49.835938 94.625-104.15625 0-57.6875-46.933594-104.625-104.628906-104.625-57.691406 0-104.625 46.9375-104.625 104.628906 0 54.316406 41.609375 99.101563 94.625 104.152344v30.480469c-2.121094-2.839844-4.457032-5.5625-7.023438-8.132813-36.316406-36.316406-103.042968-25.988281-105.863281-25.53125-4.25.6875-7.585937 4.019532-8.273437 8.269532-.457032 2.824218-10.785157 69.546874 25.535156 105.863281 2.640625 2.640625 5.441406 5.035156 8.371094 7.207031h-63.269532c-5.523437 0-9.99999975 4.476562-9.99999975 10v55.15625c0 5.523438 4.47656275 10 9.99999975 10h24.484375v34.953125h-24.488281c-5.523438 0-10 4.476563-10 10v54.953125c0 5.523438 4.476562 10 10 10h268.984375c5.519531 0 10-4.476562 10-10v-44.953125h12.144531v44.953125c0 5.523438 4.476563 10 10 10h75.53125c5.519532 0 10-4.476562 10-10v-307.398438h20.351563c3.515625 0 6.773437-1.84375 8.578125-4.859374 1.808594-3.015626 1.898437-6.757813.238281-9.859376zm-156.84375 202.210938h-45.898437v-35.15625h45.898437zm-134.492187-35.15625v35.160156h-48.59375v-35.160156zm20 0h48.589843v35.160156h-48.589843zm43.878906-87.402344c18.617187-18.621094 52.109375-18.53125 67-17.433594 1.097656 14.902344 1.183594 48.382813-17.4375 67-13.378906 13.382813-34.441406 17.101563-50.761719 17.730469l13.761719-13.761719c3.902344-3.902343 3.902344-10.234374 0-14.140624-3.90625-3.90625-10.238282-3.90625-14.144532 0l-16.074218 16.074218c.027344-1.949218.027344-3.992187-.011719-6.113281.785156-16.109375 4.667969-36.355469 17.667969-49.355469zm-112.46875-154.90625c0-46.664062 37.960937-84.628906 84.625-84.628906 46.664062 0 84.628906 37.964844 84.628906 84.628906 0 46.664063-37.964844 84.628906-84.628906 84.628906-46.664063-.003906-84.625-37.964843-84.625-84.628906zm-27.613282 119.890625c16.867188-1.386719 58.210938-2.105469 81.070313 20.753907 15.773437 15.773437 20.320313 40.347656 21.167969 59.609374v8.222657l-36.738282-36.742188c-3.90625-3.902343-10.238281-3.902343-14.144531 0-3.90625 3.90625-3.90625 10.238281 0 14.144531l36.410157 36.410157c-19.9375.007812-49.132813-3.445313-67.011719-21.328125-22.859375-22.859375-22.140625-64.210938-20.753907-81.070313zm-38.289062 122.417969h45.898438v35.160156h-45.898438zm0 110.109375h45.898438v34.953125h-45.898438zm183.082031 0v34.953125h-48.589843v-34.953125zm-68.589843 34.953125h-48.59375v-34.953125h48.59375zm134.492187 0h-45.898437v-34.953125h45.898437zm-214.496094-54.953125v-34.953125h246.640625v34.953125zm332.171875-262.445313c-5.523437 0-10 4.476563-10 10v307.398438h-17.765625v-219.386719c0-5.523437-4.480469-10-10-10-5.523437 0-10 4.476563-10 10v219.386719h-17.769531v-297.398438h19.003906c5.523438 0 10-4.476562 10-10 0-5.523437-4.476562-10-10-10h-42.660156l51.425781-96.101562 51.425781 96.101562zm0 0" fill="#f4511e"/></svg>
