<svg xmlns="http://www.w3.org/2000/svg" width="512" height="512" viewBox="0 0 169.1 169.1"><path d="M122.4 0H46.7A47 47 0 0 0 0 46.7v75.8A47 47 0 0 0 46.7 169h75.8a47 47 0 0 0 46.7-46.7V46.7A47 47 0 0 0 122.4 0zM154 122.4c0 17.6-14 31.6-31.6 31.6H46.7C29.2 154 15 140 15 122.4V46.7C15 29.2 29.2 15 46.7 15h75.8C140 15 154 29.2 154 46.7v75.8zM84.5 41C60.5 41 41 60.5 41 84.5S60.5 128 84.5 128 128 108.6 128 84.5 108.6 41 84.5 41zm0 72C68.8 113 56 100.3 56 84.5S68.8 56 84.5 56 113 68.8 113 84.5 100.3 113 84.5 113zM130 28.3a11 11 0 0 0-11 11c0 3 1.2 5.7 3.2 7.8 2 2 5 3.2 7.8 3.2 3 0 5.7-1.2 7.8-3.2 2-2 3.2-5 3.2-7.8a11 11 0 0 0-11-11z" fill="#fff"/></svg>