<svg xmlns="http://www.w3.org/2000/svg" width="45" height="45"><path d="M43.3 11.27v-.05c-1.05-4.1-5.8-8.5-10.16-9.42h-.06a58.61 58.61 0 0 0-21.26 0h-.05c-4.36.92-9.1 5.32-10.16 9.42v.04a38.62 38.62 0 0 0 0 17.26l.01.05c1 3.93 5.4 8.12 9.6 9.28v4.58c0 1.66 2.1 2.47 3.3 1.28l4.82-4.82a54.8 54.8 0 0 0 3.13.1c3.55 0 7.1-.32 10.63-.97h.03a14.8 14.8 0 0 0 10.16-9.42v-.08a38.62 38.62 0 0 0 0-17.26zM39.5 27.7c-.7 2.67-4.3 6-7.17 6.6-3.75.7-7.53.98-11.3.88a.27.27 0 0 0-.2.08l-7.26 7.17c-.27.27-.75.1-.75-.3v-7.58a.26.26 0 0 0-.22-.26v.01c-2.9-.6-6.5-3.93-7.2-6.6a35.05 35.05 0 0 1 0-15.6c.7-2.67 4.3-6 7.17-6.6 6.55-1.2 13.2-1.2 19.74 0 2.87.6 6.47 3.94 7.17 6.62a35.01 35.01 0 0 1 0 15.6zm-10.82 3.5l-1.25-.37c-4.04-1.6-7.76-3.7-10.7-6.9a26.2 26.2 0 0 1-4.1-6.03c-.53-1.03-.97-2.1-1.42-3.16-.4-.97.2-1.97.83-2.7a6.6 6.6 0 0 1 2.2-1.6c.65-.3 1.3-.13 1.77.4a22 22 0 0 1 2.74 3.7c.47.82.34 1.82-.5 2.38-.2.14-.4.3-.6.45-.17.13-.33.27-.44.45-.2.33-.22.72-.1 1.1a9.9 9.9 0 0 0 5.73 6.1c.46.2.93.4 1.47.34.9-.1 1.2-1.05 1.82-1.54.62-.48 1.4-.5 2.06-.1a42.97 42.97 0 0 1 1.94 1.27c.63.43 1.25.85 1.83 1.34.56.47.75 1.1.43 1.73a5.9 5.9 0 0 1-2.6 2.77c-.34.17-.74.23-1.13.35-.44-.13.38-.1 0 0zM22.46 9.12c5.28.14 9.62 3.52 10.55 8.55.16.86.22 1.73.3 2.6.03.37-.2.7-.6.72-.42 0-.6-.34-.64-.7-.05-.72-.1-1.45-.2-2.17-.55-3.8-3.68-6.93-7.6-7.6-.6-.1-1.2-.13-1.8-.2-.38-.04-.87-.06-.95-.5-.07-.38.26-.68.64-.7h.3c5.28.14-.1 0 0 0zm8.04 10.02c-.01.06-.01.2-.05.35-.14.5-.94.57-1.13.06a1.48 1.48 0 0 1-.06-.49c0-1.08-.25-2.15-.8-3.1a5.89 5.89 0 0 0-2.5-2.26 7.41 7.41 0 0 0-2-.59l-.9-.12c-.37-.05-.56-.27-.54-.62.02-.33.26-.56.63-.54 1.2.07 2.38.32 3.46.87a6.7 6.7 0 0 1 3.8 5.24l.05.32.05.88c-.01.06-.02-.35 0 0zm-3.3-.12c-.44.01-.68-.23-.72-.62l-.12-.8c-.13-.52-.42-1-.88-1.32a2.33 2.33 0 0 0-.71-.33c-.33-.1-.66-.06-1-.14-.35-.08-.54-.36-.5-.67.05-.3.34-.5.67-.5 2.05.14 3.5 1.16 3.72 3.48a1.4 1.4 0 0 1-.01.5.52.52 0 0 1-.47.42c-.44.01.2-.01 0 0z" fill="#FFF"/></svg>