<svg xmlns="http://www.w3.org/2000/svg" width="512" height="512" viewBox="0 0 97.8 97.8"><path d="M49 0A49 49 0 0 0 0 48.9a49 49 0 0 0 48.9 48.9 49 49 0 0 0 48.9-48.9A49 49 0 0 0 48.9 0zm24.8 54.2c2.3 2.2 4.7 4.3 6.7 6.8 1 1 1.8 2.2 2.4 3.5 1 1.8.1 3.8-1.5 4h-10c-2.6.2-4.6-.8-6.4-2.6l-4-4.4c-.5-.6-1-1.2-1.8-1.6-1.4-1-2.6-.6-3.3.8-.8 1.5-1 3-1 4.7-.1 2.4-.8 3-3.2 3-5 .2-10-.5-14.3-3-4-2.3-7-5.4-9.6-9-5.2-7-9-14.7-12.7-22.6-.8-1.8-.2-2.7 1.8-2.8h9.8c1.3 0 2.2.8 2.7 2a61 61 0 0 0 6.6 12.3c.7 1 1.5 2 2.5 2.8 1.2.8 2 .5 2.6-.8.4-.8.5-1.7.6-2.6.3-3 .3-6-.2-9-.3-2-1.3-3-3.2-3.5-1-.2-.8-.5-.4-1 .8-1 1.6-1.5 3-1.5H52c1.8.4 2.2 1.2 2.4 3V45c0 .7.3 2.8 1.6 3.2 1 .3 1.7-.5 2.3-1a39 39 0 0 0 6.4-9.8 66 66 0 0 0 2.1-4.8c.5-1.2 1.2-1.8 2.6-1.8h11c.3 0 .6 0 1 .1 1.8.3 2.3 1 1.8 3-1 2.8-2.6 5.2-4.3 7.5L73 48.7c-1.7 2.3-1.5 3.5.5 5.5z" fill="#fff"/></svg>