<svg xmlns="http://www.w3.org/2000/svg" width="512" height="512" viewBox="0 0 548.4 548.4"><path d="M545.5 400.3c-.7-1.4-1.3-2.6-2-3.6-9.5-17-27.7-38.2-54.5-63l-1-1h-.3c-12.2-11.6-20-19.4-23-23.4-6-7.6-7.2-15.3-4-23 2.3-6 11-18.4 25.7-37.4l18.6-24.3c33-43.8 47.2-71.8 42.8-84l-1.7-2.8c-1-1.7-4-3.3-8.8-4.7a45 45 0 0 0-18.3-.7l-82.2.6c-1.3-.5-3.2-.4-5.7.1l-3.7 1-1.4.7-1 1c-1 .6-2 1.6-3 3-1 1.4-2 3-2.8 5a466 466 0 0 1-30.6 64.2L368.6 238l-14.8 19c-4 4-7.6 7.4-11 9.8s-5.7 3.5-7.4 3l-5-1a19 19 0 0 1-6.4-7c-1.6-3-2.7-6.7-3.3-11l-1-11.6 1-49.3.7-20c.2-5 .3-10.2.3-15.7l-1-13c-.7-3-1.7-6.2-3-9-1.3-3-3.3-5.2-6-7a33 33 0 0 0-9.6-3.9 190 190 0 0 0-38.5-3.7c-35.4-.4-58 2-68.2 7-4 2-7.6 5-10.8 8.6-3.4 4.2-4 6.5-1.4 7 11.4 1.7 19.5 5.8 24.3 12.3l1.7 3.4c1.3 2.5 2.7 7 4 13l2.6 20.8c1 14 1 25.8 0 35.7l-2.7 23c-1 5.5-2 10-4 13.4s-3 5.5-3.4 6.3-1 1.2-1.4 1.4c-2.5 1-5 1.4-7.7 1.4s-6-1.3-9.7-4-7.8-6.3-11.8-11a147 147 0 0 1-13.8-19.6l-20.6-38a712 712 0 0 1-11.7-23.3l-13-29.6c-1.5-4-3.8-7-7-9l-1.4-1c-1-.8-2.5-1.6-4.6-2.4s-4.3-1.5-6.6-2l-78.2.6c-8 0-13.4 1.8-16.3 5.4l-1 1.7c-.6 1-1 2.5-1 4.6s.6 4.7 1.7 7.7A942 942 0 0 0 39 229.1c13.4 25 25 45 35 60.2l30.3 43 20.4 26a186 186 0 0 0 7.9 8.6l7 7c4.6 4.6 11.3 10 20 16.4l29.4 19c10.8 6.2 23.3 11.2 37.5 15a130 130 0 0 0 41.7 4.7h32.8c6.7-.6 11.7-2.7 15-6.3l1-1.4c.8-1 1.5-3 2-5.3a29 29 0 0 0 1-7.9 94 94 0 0 1 1.9-22.1 58 58 0 0 1 4.9-14.8c1.8-3.3 4-6 6-8.4 2.3-2.3 4-3.7 5-4 1-.5 1.7-.8 2.3-1 4.6-1.5 10 0 16 4.4s12 10 17.4 16.6c5.4 6.6 12 14 19.6 22s14.3 14.3 20 18.3l5.7 3.4c3.8 2.3 8.8 4.4 15 6.3a32 32 0 0 0 16 1.4l73-1c7.2 0 13-1.2 16.8-3.6 4-2.4 6.4-5 7-8s.8-6 .1-9.7l-2-7.6z" fill="#fff"/></svg>