<svg xmlns="http://www.w3.org/2000/svg" width="45" height="45"><g fill="#FFF"><path d="M37.68 7.08A21.8 21.8 0 0 0 22.19.69a21.8 21.8 0 0 0-15.5 6.39c-8 7.97-8.56 20.72-1.38 29.32-.7 1.4-1.84 3.05-3.5 3.87a2.03 2.03 0 0 0-1.12 2.14 2.05 2.05 0 0 0 1.71 1.71c.42.06 1 .13 1.73.13 1.94 0 4.8-.45 7.7-2.54a21.89 21.89 0 0 0 10.35 2.59 21.98 21.98 0 0 0 15.52-6.39 21.6 21.6 0 0 0 6.42-15.42 21.6 21.6 0 0 0-6.43-15.42zM35.9 36.15a19.5 19.5 0 0 1-23.56 3.01 1.25 1.25 0 0 0-1.52.19.41.41 0 0 0-.1.07c-2.5 1.94-4.98 2.34-6.6 2.34h-.01C6 40.4 7.18 38.37 7.88 36.8c.1-.27.13-.54.07-.8a1.29 1.29 0 0 0-.31-.7C.85 27.67 1.2 16.05 8.45 8.84a19.5 19.5 0 0 1 27.45 0c7.58 7.53 7.58 19.78.01 27.3z"/><ellipse cx="22.19" cy="22.5" rx="1.54" ry="1.53"/><ellipse cx="30.12" cy="22.5" rx="1.54" ry="1.53"/><ellipse cx="14.26" cy="22.5" rx="1.54" ry="1.53"/></g></svg>