<svg xmlns="http://www.w3.org/2000/svg" width="45" height="45"><path d="M.9 44.3L4 33.5a21.6 21.6 0 0 1-3-11C.9 10.5 10.8.7 22.8.7a22 22 0 0 1 21.9 21.8c0 12-9.8 21.8-21.9 21.8a22 22 0 0 1-10.7-2.8L.9 44.3zm11.8-6.8l.7.4a18.2 18.2 0 0 0 9.5 2.6c10 0 18.2-8.1 18.2-18.1s-8.2-18-18.3-18S4.6 12.5 4.6 22.5a18 18 0 0 0 2.9 9.7l.5.7-1.8 6.2 6.5-1.7zm4.1-24.8l-1.4-.1a1.7 1.7 0 0 0-1.2.4 6 6 0 0 0-2.1 3.2c-.5 2.2.3 5 2.3 7.7a23 23 0 0 0 12.4 9c2.1.6 3.8.2 5.1-.6a4.6 4.6 0 0 0 2-2.9l.2-1.1a.7.7 0 0 0-.4-.8l-4.8-2.2a.7.7 0 0 0-.9.2L26.1 28a.5.5 0 0 1-.6.2c-1.3-.5-5.6-2.3-8-6.8a.5.5 0 0 1 .1-.6l1.8-2.1a.7.7 0 0 0 .1-.8l-2.1-4.8a.7.7 0 0 0-.6-.4z" fill="#FFF"/></svg>