<svg xmlns="http://www.w3.org/2000/svg" width="512" height="512" viewBox="0 0 90 90"><path d="M90 43.8a44 44 0 0 1-44.2 43.8c-7.7 0-15-2-21.4-5.5L0 90l8-23.5C4 60 1.6 52 1.6 43.8A44 44 0 0 1 45.8 0 44 44 0 0 1 90 43.8zM45.8 7A37 37 0 0 0 8.7 43.8c0 8 2.6 15.5 7 21.6L11 79l14.3-4.5a37 37 0 0 0 20.4 6.1A37 37 0 0 0 83 43.8 37 37 0 0 0 45.8 7zM68 54c-.3-.4-1-.7-2-1.3l-7.4-3.5c-1-.4-1.7-.5-2.4.5a62 62 0 0 1-3.4 4.2c-.6.7-1.3.8-2.3.3S46 52.5 41.7 49c-3.2-2.8-5.4-6.4-6-7.4s-.1-1.7.5-2.2c.5-.5 1-1.3 1.6-2s.7-1 1-1.8.2-1.3-.1-2l-3.3-8c-1-2-1.8-1.8-2.4-1.8s-1.4-.1-2-.1a4 4 0 0 0-2.9 1.3c-1 1-3.8 3.7-3.8 9s4 10.4 4.4 11 7.5 12 18.5 16.2 11 3 13 2.7a11 11 0 0 0 7.3-5.1c1-2.5 1-4.7.6-5z" fill="#fff"/></svg>