<?xml version="1.0" encoding="UTF-8"?>
<svg width="27px" height="19px" viewBox="0 0 27 19" version="1.1" xmlns="http://www.w3.org/2000/svg" xmlns:xlink="http://www.w3.org/1999/xlink">
    <!-- Generator: Sketch 49.2 (51160) - http://www.bohemiancoding.com/sketch -->
    <title>arrow copy 2</title>
    <desc>Created with Sketch.</desc>
    <defs></defs>
    <g id="Page-1" stroke="none" stroke-width="1" fill="none" fill-rule="evenodd">
        <g id="Главная" transform="translate(-1124.000000, -301.000000)" fill="#4A4A4A">
            <path d="M1150.63213,309.59257 L1142.59743,301.376119 C1142.10726,300.874627 1141.3122,300.874627 1140.82193,301.376119 C1140.33167,301.877634 1140.33167,302.690247 1140.82193,303.191739 L1146.71355,309.216566 L1125.25544,309.216566 C1124.56218,309.216566 1124,309.791152 1124,310.50038 C1124,311.209125 1124.56218,311.784194 1125.25544,311.784194 L1146.71355,311.784194 L1140.82221,317.808515 C1140.33185,318.31003 1140.33185,319.123103 1140.82221,319.624135 C1141.06733,319.875134 1141.38861,320.000139 1141.70996,320.000139 C1142.03121,320.000139 1142.3525,319.875134 1142.59771,319.624135 L1150.63213,311.40819 C1151.12249,310.906675 1151.12249,310.093579 1150.63213,309.59257 Z" id="arrow-copy-2"></path>
        </g>
    </g>
</svg>